<?xml version="1.0" encoding="UTF-8"?>
<svg id="Icon" xmlns="http://www.w3.org/2000/svg" viewBox="0 0 795.8 511.69">
  <g id="Icon-2" data-name="Icon">
    <path d="m247.86.01C112.81,1.23-2.13,109.86.03,253.6c-1.3,142.25,107.74,257.95,252.64,258.09,145,.14,255.3-109.76,257.77-250.17C513.06,113.06,394.48-1.29,247.86.01Zm-73.22,81.23c69.96-31.54,134.4-17.65,196.62,25.08.02.01.02.04,0,.06-4.93,4.4-9.11,8.3-13.46,11.98-23.99,20.3-48.06,40.46-71.96,60.89-1.94,1.67-3.87,2.84-5.9,3.51-8.55-2.97-17.78-4.55-27.32-4.55-29.3,0-55.08,14.9-70.16,37.53-3.96,1.85-8.42,2.7-13.37,2.34-32.99-2.34-66.02-4.64-99.77-6.98,15.26-60.35,48.96-104.45,105.31-129.88Zm-107.11,200.4c33.39,4.1,66.02,7.83,98.47,12.33,3.65.54,7.74,2.61,10.76,5.31,10.98,22.55,31.73,39.47,56.7,45.23,2.16,2.16,3.92,4.73,4.77,7.2,10.26,29.34,19.58,59,29.21,88.57.41,1.26.41,2.7.59,4.05-97.12,16.56-195.72-69.35-200.49-162.68Zm222.09-16.61c-1.3,19.26-17.37,34.56-36.99,34.56s-34.11-13.82-36.77-31.73v-.05c-.22-1.76-.36-3.56-.36-5.36,0-6.93,1.89-13.46,5.18-18.99.09-.09.13-.18.18-.27,6.53-10.71,18.32-17.87,31.77-17.87,10.26,0,19.58,4.19,26.28,10.98.13.09.22.18.27.27,6.53,6.66,10.53,15.8,10.53,25.88,0,.86-.05,1.71-.09,2.57Zm48.6,163.4c-1.39-3.06-2.88-5.49-3.6-8.1-8.28-28.71-16.43-57.42-24.62-86.13-.9-3.15-1.22-6.21-.94-9.18,17.06-15.39,27.81-37.71,27.81-62.55,0-5.67-.58-11.25-1.67-16.6,1.03-6.44,4.45-11.84,9.99-17.15,21.6-20.88,42.44-42.57,63.59-63.95,2.16-2.12,4.41-4.19,6.66-6.3,57.51,79.52,29.97,220.83-77.22,269.97Z" style="fill: #E50914; stroke-width: 0px;"/>
    <path d="m539.05,275.54c2.69-29.6-1.43-58.22-8.46-87.57-.62-2.58,1.58-4.95,4.2-4.54,13.38,2.09,25.94,3.91,38.41,6.2,72.3,13.24,144.57,26.63,216.85,39.96,1.38.25,3.11-.08,4.11.64,2.36,1.7,2.09,10.13-.44,10.6-16.55,3.07-33.17,5.81-49.81,8.41-53.22,8.33-106.46,16.58-159.7,24.82-13.23,2.05-26.48,3.96-40.42,6.02-2.69.4-5.01-1.83-4.76-4.54Z" style="fill: #E50914; stroke-width: 0px;"/>
    <path d="m642.15,125.62c-38.27,1.2-79.28,2.42-120.28,3.82-6.9.24-11.8-2.16-15.26-8.19-13.5-23.49-29.91-44.77-48.84-64.17-1.87-1.92,3.49-11.17,6.26-10.56,50.38,11.07,100.69,22.46,151.01,33.77,51.42,11.55,102.86,23.04,154.24,34.76,2.69.61,2.18,7.62-.46,7.69-41.3,1.08-82.61,1.93-126.66,2.89Z" style="fill: #E50914; stroke-width: 0px;"/>
    <path d="m542.9,338.02c55.6,2.51,111.2,5.03,166.8,7.54.84.04,1.83-.17,2.5.2,2.22,1.21,2.99,8.29.76,9.03-25.85,8.55-51.77,16.91-77.72,25.15-45.48,14.44-90.98,28.81-136.52,43.05-2.68.84-8.01-6.04-6.68-8.79,10.24-21.2,21.09-42.1,31.02-63.44,7.31-15.7,3.59-13.14,19.83-12.74Z" style="fill: #E50914; stroke-width: 0px;"/>
  </g>
</svg>

