<?xml version="1.0" encoding="UTF-8"?>
<svg id="Typo" xmlns="http://www.w3.org/2000/svg" viewBox="0 0 986.98 203.61">
  <g id="Typo-2" data-name="Typo">
    <path d="m867.14,68.32c7.24-5.38,13.59-11.17,20.88-15.33,24.37-13.93,58.24-11.25,78.59,5.74,11.2,9.35,17.06,21.89,18.48,35.99,1.45,14.39,1.56,28.93,1.76,43.41.27,19.29.07,38.59.07,57.89v6c-14.47,0-28.27.03-42.07-.02-3.73-.01-2.56-2.99-2.56-4.94-.06-24.76.04-49.52-.1-74.28-.03-5.26-.51-10.58-1.43-15.77-4.3-24.31-26.93-27.77-42.97-20.75-13.54,5.93-18.64,17.86-18.96,31.5-.62,25.94-.44,51.91-.24,77.86.04,5.34-1.69,6.67-6.75,6.51-11.1-.35-22.23-.28-33.34-.02-4.19.1-5.23-1.42-5.21-5.34.13-26.3.14-52.59,0-78.89-.02-4.57-.43-9.25-1.49-13.68-5.2-21.83-25.96-24.21-40.58-18.57-15.38,5.93-20.26,19.05-20.47,34.11-.35,25.27-.24,50.55.02,75.82.05,5.01-.89,6.85-6.37,6.62-11.43-.49-22.91-.22-34.36-.09-2.98.03-4.23-.65-4.22-3.97.1-50.03.07-100.07.09-150.1,0-.32.16-.63.39-1.55,1.78-.1,3.75-.29,5.72-.29,10.6-.03,21.2.1,31.8-.08,3.54-.06,4.96,1.11,4.75,4.69-.22,3.84-.05,7.7-.05,13.15,15.09-14.88,32.31-20.33,51.69-19.56,19.53.77,35.57,8.49,46.93,23.95Z" style="fill: #ffffff; stroke-width: 0px;"/>
    <path d="m482.08,66.38c-25.55-22.79-55.87-27.11-87.77-18.25-61.15,17.02-72.09,86.56-40.76,125.25,17.35,21.39,40.76,29.88,60.08,30.23,56.52.03,90.45-30.15,92.8-76.66,1.2-23.64-6.43-44.59-24.35-60.57Zm-21.2,57.56c.25,16.55-5.12,30.42-20.49,38.3-23.06,11.82-53.81.63-57.73-30.59-1.81-14.31.19-27.99,11.03-38.9,11.05-11.19,28.56-14.99,43.01-8.92,15.38,6.48,22.87,18.69,24.19,34.99.11,1.7,0,3.42,0,5.12Z" style="fill: #ffffff; stroke-width: 0px;"/>
    <path d="m671.52,66.65c-26.89-24.29-58.93-27.66-92.09-17.45-30.89,9.49-49.38,31.44-53.71,63.86-3.58,26.67,3.86,50.09,23.8,68.7,17.1,15.98,38.19,21.7,53.38,21.86,53.76.03,86.54-26.59,92.2-69.71,3.39-26.02-3.83-49.38-23.58-67.25Zm-21.59,57.37c.41,17.95-6.05,32.34-23.2,39.59-23.86,10.04-54.36-4.24-56.03-33.79-.63-10.94.14-21.5,6.18-31.05,8.78-13.79,28.12-20.71,45.14-16.17,15.73,4.19,27.09,18.52,27.88,35.29.11,2.02.03,4.08.03,6.13Z" style="fill: #ffffff; stroke-width: 0px;"/>
    <path d="m227.3,46.15c9.65,0,18.83-.1,28.01.04,4.7.07,10.91-1.07,13.62,1.4,2.38,2.18.81,8.64,1.01,13.21.05,1.16.15,2.32.32,4.77,14.25-15.96,31.99-21.06,52.29-21.24.21,2.13.54,3.91.54,5.7.05,9.56.03,19.12.02,28.68,0,6.85-.03,6.93-6.68,6.5-8.14-.52-16.1.23-23.53,3.69-14.77,6.88-20.5,19.54-20.72,34.87-.35,24.23-.23,48.48,0,72.72.05,4.62-1.3,5.75-5.76,5.63-11.61-.31-23.24-.16-34.86-.06-2.83.03-4.34-.38-4.33-3.84.1-50.34.07-100.69.07-152.08Z" style="fill: #ffffff; stroke-width: 0px;"/>
    <path d="m0,.14C16.36.14,32.07.08,47.77.28c1.14.01,2.78,1.71,3.32,2.98,13.26,31.22,26.41,62.48,39.57,93.74,5.88,13.98,11.71,27.97,17.61,41.94.64,1.51,1.57,2.9,2.91,5.31,3.71-8.52,7.06-16.07,10.31-23.67,16.42-38.39,32.85-76.78,49.14-115.22,1.58-3.72,3.43-5.47,7.81-5.36,13.31.32,26.63.12,40.71.12-4.01,9.37-7.73,18.1-11.48,26.81-23.6,54.79-47.38,109.49-70.61,164.43-3.39,8.02-7.13,11.8-16.27,10.87-9.48-.96-19.13-.43-28.7-.12-4.22.14-6.37-1.2-8.05-5.16-15.39-36.24-30.99-72.39-46.54-108.57C25.24,59.89,12.98,31.4.74,2.9.48,2.3.39,1.62,0,.14Z" style="fill: #ffffff; stroke-width: 0px;"/>
  </g>
</svg>

